<mxfile host="app.diagrams.net" agent="Mozilla/5.0 (Windows NT 10.0; Win64; x64) AppleWebKit/537.36 (KHTML, like Gecko) Chrome/128.0.0.0 Safari/537.36" version="24.7.16" pages="2">
  <diagram name="Page-1" id="NJ6zd1APYhZEfVvE2v1i">
    <mxGraphModel dx="1120" dy="434" grid="1" gridSize="10" guides="1" tooltips="1" connect="1" arrows="1" fold="1" page="1" pageScale="1" pageWidth="850" pageHeight="1100" math="0" shadow="0">
      <root>
        <mxCell id="0" />
        <mxCell id="1" parent="0" />
        <mxCell id="KmCdPqeZuEQBBqfaIwWt-1" value="" style="shape=datastore;whiteSpace=wrap;html=1;" vertex="1" parent="1">
          <mxGeometry x="210" y="50" width="60" height="60" as="geometry" />
        </mxCell>
        <mxCell id="KmCdPqeZuEQBBqfaIwWt-2" value="" style="endArrow=classic;html=1;rounded=0;" edge="1" parent="1">
          <mxGeometry width="50" height="50" relative="1" as="geometry">
            <mxPoint x="140" y="80" as="sourcePoint" />
            <mxPoint x="200" y="79.5" as="targetPoint" />
          </mxGeometry>
        </mxCell>
        <mxCell id="KmCdPqeZuEQBBqfaIwWt-3" value="" style="endArrow=classic;html=1;rounded=0;" edge="1" parent="1">
          <mxGeometry width="50" height="50" relative="1" as="geometry">
            <mxPoint x="290" y="79.5" as="sourcePoint" />
            <mxPoint x="330" y="80" as="targetPoint" />
          </mxGeometry>
        </mxCell>
        <mxCell id="KmCdPqeZuEQBBqfaIwWt-10" value="" style="edgeStyle=orthogonalEdgeStyle;rounded=0;orthogonalLoop=1;jettySize=auto;html=1;" edge="1" parent="1" source="KmCdPqeZuEQBBqfaIwWt-4" target="KmCdPqeZuEQBBqfaIwWt-5">
          <mxGeometry relative="1" as="geometry">
            <Array as="points">
              <mxPoint x="490" y="90" />
              <mxPoint x="490" y="90" />
            </Array>
          </mxGeometry>
        </mxCell>
        <mxCell id="KmCdPqeZuEQBBqfaIwWt-4" value="" style="shape=mxgraph.pid.shaping_machines.pelletizing_disc;html=1;pointerEvents=1;align=center;verticalLabelPosition=bottom;verticalAlign=top;dashed=0;" vertex="1" parent="1">
          <mxGeometry x="330" y="50" width="135" height="60" as="geometry" />
        </mxCell>
        <mxCell id="KmCdPqeZuEQBBqfaIwWt-5" value="" style="shape=image;html=1;verticalAlign=top;verticalLabelPosition=bottom;labelBackgroundColor=#ffffff;imageAspect=0;aspect=fixed;image=https://cdn1.iconfinder.com/data/icons/computer-hardware-line-vol-2/52/ram__hardware__memory__memorycard__electronics__chip__technology-128.png" vertex="1" parent="1">
          <mxGeometry x="500" y="10" width="128" height="128" as="geometry" />
        </mxCell>
        <mxCell id="KmCdPqeZuEQBBqfaIwWt-6" style="edgeStyle=orthogonalEdgeStyle;rounded=0;orthogonalLoop=1;jettySize=auto;html=1;entryX=0.87;entryY=0.4;entryDx=0;entryDy=0;entryPerimeter=0;" edge="1" parent="1" source="KmCdPqeZuEQBBqfaIwWt-5" target="KmCdPqeZuEQBBqfaIwWt-4">
          <mxGeometry relative="1" as="geometry" />
        </mxCell>
        <mxCell id="KmCdPqeZuEQBBqfaIwWt-9" value="" style="edgeStyle=orthogonalEdgeStyle;rounded=0;orthogonalLoop=1;jettySize=auto;html=1;" edge="1" parent="1" source="KmCdPqeZuEQBBqfaIwWt-5" target="KmCdPqeZuEQBBqfaIwWt-8">
          <mxGeometry relative="1" as="geometry">
            <mxPoint x="740" y="74" as="targetPoint" />
            <mxPoint x="628" y="74" as="sourcePoint" />
          </mxGeometry>
        </mxCell>
        <mxCell id="KmCdPqeZuEQBBqfaIwWt-8" value="App" style="rounded=0;whiteSpace=wrap;html=1;" vertex="1" parent="1">
          <mxGeometry x="670" y="51" width="70" height="46" as="geometry" />
        </mxCell>
        <mxCell id="KmCdPqeZuEQBBqfaIwWt-19" value="" style="shape=datastore;whiteSpace=wrap;html=1;" vertex="1" parent="1">
          <mxGeometry x="220" y="140" width="60" height="60" as="geometry" />
        </mxCell>
        <mxCell id="KmCdPqeZuEQBBqfaIwWt-20" value="" style="endArrow=classic;html=1;rounded=0;" edge="1" parent="1">
          <mxGeometry width="50" height="50" relative="1" as="geometry">
            <mxPoint x="150" y="170" as="sourcePoint" />
            <mxPoint x="210" y="169.5" as="targetPoint" />
          </mxGeometry>
        </mxCell>
        <mxCell id="KmCdPqeZuEQBBqfaIwWt-21" value="" style="endArrow=classic;html=1;rounded=0;entryX=0;entryY=0.5;entryDx=0;entryDy=0;" edge="1" parent="1" target="KmCdPqeZuEQBBqfaIwWt-27">
          <mxGeometry width="50" height="50" relative="1" as="geometry">
            <mxPoint x="300" y="169.5" as="sourcePoint" />
            <mxPoint x="340" y="170" as="targetPoint" />
          </mxGeometry>
        </mxCell>
        <mxCell id="KmCdPqeZuEQBBqfaIwWt-25" value="" style="edgeStyle=orthogonalEdgeStyle;rounded=0;orthogonalLoop=1;jettySize=auto;html=1;" edge="1" parent="1" target="KmCdPqeZuEQBBqfaIwWt-26">
          <mxGeometry relative="1" as="geometry">
            <mxPoint x="750" y="164" as="targetPoint" />
            <mxPoint x="638" y="164" as="sourcePoint" />
          </mxGeometry>
        </mxCell>
        <mxCell id="KmCdPqeZuEQBBqfaIwWt-26" value="App" style="rounded=0;whiteSpace=wrap;html=1;" vertex="1" parent="1">
          <mxGeometry x="680" y="141" width="70" height="46" as="geometry" />
        </mxCell>
        <mxCell id="KmCdPqeZuEQBBqfaIwWt-27" value="" style="shape=image;html=1;verticalAlign=top;verticalLabelPosition=bottom;labelBackgroundColor=#ffffff;imageAspect=0;aspect=fixed;image=https://cdn1.iconfinder.com/data/icons/computer-hardware-line-vol-2/52/ram__hardware__memory__memorycard__electronics__chip__technology-128.png" vertex="1" parent="1">
          <mxGeometry x="490" y="106" width="128" height="128" as="geometry" />
        </mxCell>
      </root>
    </mxGraphModel>
  </diagram>
  <diagram id="OwbppNofQDVZb5B4NJ1u" name="Page-2">
    <mxGraphModel dx="1120" dy="434" grid="1" gridSize="10" guides="1" tooltips="1" connect="1" arrows="1" fold="1" page="1" pageScale="1" pageWidth="850" pageHeight="1100" math="0" shadow="0">
      <root>
        <mxCell id="0" />
        <mxCell id="1" parent="0" />
        <mxCell id="AeYG0UivrXo0CMttOQOi-17" value="" style="edgeStyle=orthogonalEdgeStyle;rounded=0;orthogonalLoop=1;jettySize=auto;html=1;" edge="1" parent="1" source="AeYG0UivrXo0CMttOQOi-16" target="AeYG0UivrXo0CMttOQOi-7">
          <mxGeometry relative="1" as="geometry" />
        </mxCell>
        <mxCell id="AeYG0UivrXo0CMttOQOi-16" value="ODS" style="rounded=1;whiteSpace=wrap;html=1;dashed=1;" vertex="1" parent="1">
          <mxGeometry y="34" width="140" height="210" as="geometry" />
        </mxCell>
        <mxCell id="AeYG0UivrXo0CMttOQOi-2" value="" style="ellipse;whiteSpace=wrap;html=1;" vertex="1" parent="1">
          <mxGeometry x="10" y="60" width="110" height="60" as="geometry" />
        </mxCell>
        <mxCell id="AeYG0UivrXo0CMttOQOi-3" value="" style="shape=image;html=1;verticalAlign=top;verticalLabelPosition=bottom;labelBackgroundColor=#ffffff;imageAspect=0;aspect=fixed;image=https://cdn3.iconfinder.com/data/icons/document-icons-2/30/647702-excel-128.png" vertex="1" parent="1">
          <mxGeometry x="10" y="50" width="38" height="38" as="geometry" />
        </mxCell>
        <mxCell id="AeYG0UivrXo0CMttOQOi-4" value="" style="dashed=0;outlineConnect=0;html=1;align=center;labelPosition=center;verticalLabelPosition=bottom;verticalAlign=top;shape=mxgraph.weblogos.json" vertex="1" parent="1">
          <mxGeometry x="48" y="110" width="42" height="30" as="geometry" />
        </mxCell>
        <mxCell id="AeYG0UivrXo0CMttOQOi-5" value="" style="shape=image;html=1;verticalAlign=top;verticalLabelPosition=bottom;labelBackgroundColor=#ffffff;imageAspect=0;aspect=fixed;image=https://cdn1.iconfinder.com/data/icons/bootstrap-vol-3/16/filetype-xml-128.png" vertex="1" parent="1">
          <mxGeometry x="82" y="50" width="38" height="38" as="geometry" />
        </mxCell>
        <mxCell id="AeYG0UivrXo0CMttOQOi-6" value="" style="shape=datastore;whiteSpace=wrap;html=1;" vertex="1" parent="1">
          <mxGeometry x="40" y="170" width="50" height="70" as="geometry" />
        </mxCell>
        <mxCell id="AeYG0UivrXo0CMttOQOi-10" value="" style="edgeStyle=orthogonalEdgeStyle;rounded=0;orthogonalLoop=1;jettySize=auto;html=1;" edge="1" parent="1" source="AeYG0UivrXo0CMttOQOi-7" target="AeYG0UivrXo0CMttOQOi-9">
          <mxGeometry relative="1" as="geometry" />
        </mxCell>
        <mxCell id="AeYG0UivrXo0CMttOQOi-7" value="Staging&amp;nbsp;&lt;div&gt;database&lt;/div&gt;" style="rounded=1;whiteSpace=wrap;html=1;" vertex="1" parent="1">
          <mxGeometry x="180" y="38" width="60" height="202" as="geometry" />
        </mxCell>
        <mxCell id="AeYG0UivrXo0CMttOQOi-13" value="" style="edgeStyle=orthogonalEdgeStyle;rounded=0;orthogonalLoop=1;jettySize=auto;html=1;" edge="1" parent="1" source="AeYG0UivrXo0CMttOQOi-8" target="AeYG0UivrXo0CMttOQOi-12">
          <mxGeometry relative="1" as="geometry" />
        </mxCell>
        <mxCell id="AeYG0UivrXo0CMttOQOi-8" value="ODS" style="rounded=1;whiteSpace=wrap;html=1;fillColor=#647687;strokeColor=#314354;fontColor=#ffffff;" vertex="1" parent="1">
          <mxGeometry x="390" y="38" width="100" height="202" as="geometry" />
        </mxCell>
        <mxCell id="AeYG0UivrXo0CMttOQOi-11" value="" style="edgeStyle=orthogonalEdgeStyle;rounded=0;orthogonalLoop=1;jettySize=auto;html=1;" edge="1" parent="1" source="AeYG0UivrXo0CMttOQOi-9" target="AeYG0UivrXo0CMttOQOi-8">
          <mxGeometry relative="1" as="geometry" />
        </mxCell>
        <mxCell id="AeYG0UivrXo0CMttOQOi-9" value="ETL" style="label;whiteSpace=wrap;html=1;align=center;verticalAlign=bottom;spacingLeft=0;spacingBottom=4;imageAlign=center;imageVerticalAlign=top;image=img/clipart/Gear_128x128.png" vertex="1" parent="1">
          <mxGeometry x="280" y="104" width="70" height="70" as="geometry" />
        </mxCell>
        <mxCell id="AeYG0UivrXo0CMttOQOi-15" value="" style="edgeStyle=orthogonalEdgeStyle;rounded=0;orthogonalLoop=1;jettySize=auto;html=1;" edge="1" parent="1" source="AeYG0UivrXo0CMttOQOi-12" target="AeYG0UivrXo0CMttOQOi-14">
          <mxGeometry relative="1" as="geometry" />
        </mxCell>
        <mxCell id="AeYG0UivrXo0CMttOQOi-12" value="ETL" style="label;whiteSpace=wrap;html=1;align=center;verticalAlign=bottom;spacingLeft=0;spacingBottom=4;imageAlign=center;imageVerticalAlign=top;image=img/clipart/Gear_128x128.png" vertex="1" parent="1">
          <mxGeometry x="550" y="104" width="70" height="70" as="geometry" />
        </mxCell>
        <mxCell id="AeYG0UivrXo0CMttOQOi-14" value="Data-&lt;div&gt;Warehouse&lt;/div&gt;" style="rounded=1;whiteSpace=wrap;html=1;fillColor=#e1d5e7;strokeColor=#9673a6;" vertex="1" parent="1">
          <mxGeometry x="680" y="38" width="100" height="202" as="geometry" />
        </mxCell>
      </root>
    </mxGraphModel>
  </diagram>
</mxfile>
